<svg width="150" height="56" fill="none" xmlns="http://www.w3.org/2000/svg"><mask id="a" style="mask-type:luminance" maskUnits="userSpaceOnUse" x="0" y="0" width="150" height="56"><path d="M149.333 0H0v56h149.333V0z" fill="#fff"/></mask><g mask="url(#a)" fill="#00095B"><path d="M141.526 16.82c.16-.275-.007-.48-.358-.48-1.823 0-4.211.007-6.103.007-.45 0-.687.053-.9.473-.702 1.342-9.238 14.135-10.825 16.615-.267.381-.595.328-.633-.107-.16-1.473-1.434-3.174-3.441-3.982-1.525-.618-3.028-.733-4.577-.527-2.807.374-5.309 1.862-7.506 3.525-3.311 2.517-6.171 5.782-9.864 8.2-2.014 1.312-4.775 2.457-6.621.748-1.671-1.549-1.48-4.99 1.075-7.651.267-.283.595-.046.542.206-.244 1.205.053 2.402.969 3.242 1.113.999 2.708 1.113 4.073.442 1.61-.8 2.556-2.342 2.838-4.089.427-2.715-1.663-5.11-4.28-5.302-2.128-.152-4.165.588-6.148 2.228-.992.824-1.564 1.434-2.418 2.662-.206.298-.534.328-.519-.114.1-3.479-1.335-5.432-4.21-5.5-2.228-.054-4.616 1.16-6.47 2.64-2.037 1.632-3.814 3.806-5.721 5.843-.237.251-.443.236-.511-.252-.061-2.304-.633-4.531-1.701-6.118-.374-.55-1.168-.824-1.839-.45-.305.168-1.38.663-2.159 1.289-.389.32-.534.778-.366 1.373 1.03 3.44.801 7.354-.595 10.657-1.282 3.028-3.776 5.76-6.705 6.682-1.93.61-3.937.313-5.18-1.395-1.701-2.358-1.015-6.47 1.526-9.872 2.242-2.998 5.484-4.905 8.719-6.133.381-.145.458-.389.35-.717-.175-.534-.457-1.259-.571-1.587-.298-.786-1.13-.915-2.144-.808-2.35.274-4.47 1.075-6.568 2.197-5.485 2.937-8.231 8.62-9.436 11.663-.58 1.465-1.076 2.373-1.717 3.182-.862 1.083-1.953 2.075-3.936 3.822a.687.687 0 00-.16.8c.206.42 1.236 1.877 1.525 2.007.32.16.702-.061.847-.168 1.389-.938 3.052-2.434 3.868-3.448.282-.343.58-.198.732.328.763 2.708 2.746 4.92 5.493 5.843 5.027 1.694 10.245-.763 14.181-5.034 2.502-2.716 3.402-4.463 4.363-5.653 1.625-2.014 4.83-6.523 8.651-9.414 1.404-1.068 3.06-1.876 3.89-1.342.672.434.885 1.441-.19 3.394-3.89 7.11-9.62 15.463-10.672 17.492-.191.351-.023.626.343.626 2.037-.008 4.058-.008 5.904-.008.306-.015.443-.152.603-.373 2.99-4.677 5.798-9.132 8.81-13.732.169-.274.321-.06.329.061.061 1.068.328 2.533.961 3.486 1.137 1.77 2.754 2.533 4.547 2.548 1.426.016 2.143-.198 3.684-.77a12.807 12.807 0 003.02-1.625c.45-.313.528.214.52.29-.694 3.715.16 8.109 3.852 9.94 4.417 2.174 9.269-.885 12.061-3.647.275-.267.565-.236.595.336.061 1.053.534 2.304 1.411 3.181 2.342 2.35 7.057 1.419 11.794-2.25 3.044-2.35 6.225-5.668 9.101-9.177.106-.138.183-.351-.023-.572-.435-.458-1.068-.985-1.503-1.389-.198-.168-.488-.122-.656.008-2.945 2.8-5.599 5.996-9.436 8.643-1.29.9-3.357 1.632-4.28.381-.359-.488-.32-1.16.038-2.044 1.106-2.792 18.812-29.736 19.727-31.33zM118.13 39.415c.038.206.305.405.572.504.091.03.145.099.038.32-.755 1.61-1.442 2.54-2.388 3.944-.869 1.297-1.846 2.304-3.028 3.273-1.785 1.48-4.264 3.082-6.317 2.006-.907-.473-1.304-1.747-1.289-2.777.046-2.899 1.335-5.881 3.715-8.803 2.907-3.578 6.118-5.431 8.224-4.417 2.182 1.038 1.487 3.563.511 5.546a.547.547 0 00-.038.404z"/><path d="M13.147 54.756C6.548 54.802.735 50.728.072 43.664c-.374-3.913.732-7.4 2.952-10.268 1.96-2.555 5.286-4.683 8.101-5.202.916-.168 2.144-.061 2.655.541.8.931.564 1.946-.229 2.358-2.143 1.098-4.73 2.975-6.003 5.53-1.038 2.09-1.244 4.616.335 7.01 2.647 4.006 10.04 4.113 16.905-2.273 1.7-1.563 3.219-3.059 4.768-4.836 3.028-3.456 4.027-4.722 8.055-10.298.046-.061.061-.153.038-.191-.03-.069-.091-.092-.206-.1-2.685.077-5.027.878-7.3 2.58-.656.48-1.594.411-2.014-.222-.458-.71-.13-1.64.626-2.159 3.661-2.548 7.659-3.006 11.74-3.692 0 0 .282.015.519-.297 1.678-2.152 2.944-4.09 4.73-6.263 1.8-2.205 4.126-4.234 5.904-5.752 2.479-2.136 4.066-2.853 5.683-3.73.427-.222-.054-.489-.183-.489-9.025-1.693-18.4-3.89-27.364-.572-6.201 2.319-8.925 7.24-7.613 10.527.93 2.335 3.998 2.708 6.873 1.305a15.483 15.483 0 006.157-5.477c.877-1.343 2.723-.374 1.724 1.96-2.624 6.164-7.636 11.054-13.74 11.26-5.194.167-8.543-3.654-8.535-8.369.022-9.299 10.374-15.417 21.245-16.34C48.993-.878 61.397 2.608 74.403 4.187c9.963 1.205 19.521 1.236 29.53-1.068 1.183-.26 2.014.496 1.938 1.694-.099 1.731-1.434 3.394-4.737 5.195-3.754 2.06-7.675 2.677-11.779 2.715-9.91.084-19.147-3.783-28.698-5.858.015.42.122.915-.23 1.182-5.286 3.906-10.069 7.873-13.273 13.441-.106.13-.045.252.138.237 2.784-.145 5.286-.221 7.88-.427.45-.038.473-.153.427-.48-.229-1.923.328-4.105 2.022-5.615 1.724-1.549 3.89-1.724 5.324-.61 1.633 1.273 1.488 3.554.595 5.27-.907 1.74-2.403 2.67-3.844 3.12 0 0-.298.07-.26.344.061.442 2.022 1.526 2.19 1.815.16.275.076.702-.222 1.03-.206.237-.534.458-.946.45-.335-.007-.541-.122-.968-.358-.878-.48-1.976-1.259-2.716-2.182-.252-.313-.374-.32-1-.282-2.807.16-7.193.587-10.16.953-.718.092-.824.222-.977.473C39.9 33.03 34.85 41.452 29.304 47.082c-5.95 6.042-10.901 7.636-16.157 7.674zM58.26 20.07c.077.404.23.48.412.442.9-.183 1.892-.923 2.472-1.777.534-.779.786-1.908.252-2.358-.473-.404-1.236-.29-1.808.214-1.13 1-1.48 2.426-1.328 3.479z"/></g></svg>